<!--?xml version="1.0" encoding="utf-8"?-->
<!-- Generator: Adobe Illustrator 18.0.0, SVG Export Plug-In . SVG Version: 6.00 Build 0)  -->

<svg version="1.1" id="_x31_0" xmlns="http://www.w3.org/2000/svg" xmlns:xlink="http://www.w3.org/1999/xlink" x="0px" y="0px" viewBox="0 0 512 512" style="width: 256px; height: 256px; opacity: 1;" xml:space="preserve">
<style type="text/css">
	.st0{fill:#374149;}
</style>
<g>
	<path class="st0" d="M467.922,100.476c-24.882-12.957-57.519-20.156-92-20.156c-34.402,0-67.121,7.199-91.922,20.156
		c-11.519,5.922-20.879,12.961-28,20.723c-7.121-7.762-16.481-14.801-28-20.723C203.121,87.52,170.481,80.32,136.082,80.32
		c-34.481,0-67.122,7.199-92,20.156C15.68,115.277,0,136.32,0,159.68v223.359c0,10.118,8.203,18.321,18.32,18.321h42.114
		c2.512,0,4.942-0.551,7.25-1.539c17.7-7.554,41.466-12.621,68.399-12.621c47.199,0,84.718,15.598,96.957,32.801
		c0.32,0.398,0.641,0.797,0.961,1.277c5.359,6.562,13.442,10.402,22,10.402c8.562,0,16.641-3.84,22-10.402
		c0.32-0.48,0.641-0.878,0.961-1.277c12.238-17.203,49.762-32.801,96.961-32.801c27.008,0,50.778,5.066,68.477,12.621
		c2.309,0.988,4.738,1.539,7.25,1.539h42.031c10.117,0,18.32-8.203,18.32-18.321V159.68C512,136.32,496.32,115.277,467.922,100.476z
		 M237.282,361.117c-2.879-1.84-6-3.598-9.282-5.278c-24.879-12.961-57.519-20.16-91.918-20.16c-34.481,0-67.122,7.199-92,20.16
		c-3.203,1.68-6.321,3.438-9.282,5.278V159.68c0-21.039,43.282-44.48,101.282-44.48c57.918,0,101.199,23.441,101.199,44.48V361.117z
		 M477.199,361.117c-2.957-1.84-6.078-3.598-9.278-5.278c-24.882-12.961-57.519-20.16-92-20.16c-34.402,0-67.121,7.199-91.922,20.16
		c-3.278,1.68-6.398,3.438-9.278,5.278V159.68c0-21.039,43.278-44.48,101.199-44.48c58,0,101.278,23.441,101.278,44.48V361.117z" style="fill: rgb(0, 20, 39);"></path>
</g>
</svg>
